<mxfile host="Electron" modified="2023-06-11T00:41:39.286Z" agent="Mozilla/5.0 (Windows NT 10.0; Win64; x64) AppleWebKit/537.36 (KHTML, like Gecko) draw.io/21.2.8 Chrome/112.0.5615.165 Electron/24.2.0 Safari/537.36" etag="08Ah5qGOR0ZLduYlFS2B" version="21.2.8" type="device">
  <diagram id="wFE0QG_FPsp0jaGvCLVb" name="Page-1">
    <mxGraphModel dx="1195" dy="703" grid="0" gridSize="10" guides="1" tooltips="1" connect="1" arrows="1" fold="1" page="1" pageScale="1" pageWidth="850" pageHeight="1100" math="0" shadow="0">
      <root>
        <mxCell id="0" />
        <mxCell id="1" parent="0" />
        <mxCell id="krENzpeuLF1vCz7CGpB7-21" style="rounded=0;orthogonalLoop=1;jettySize=auto;html=1;exitX=1;exitY=0.3333333333333333;exitDx=0;exitDy=0;exitPerimeter=0;entryX=0;entryY=0.5;entryDx=0;entryDy=0;" edge="1" parent="1" source="krENzpeuLF1vCz7CGpB7-5" target="krENzpeuLF1vCz7CGpB7-11">
          <mxGeometry relative="1" as="geometry" />
        </mxCell>
        <mxCell id="krENzpeuLF1vCz7CGpB7-22" style="rounded=0;orthogonalLoop=1;jettySize=auto;html=1;exitX=1;exitY=0.3333333333333333;exitDx=0;exitDy=0;exitPerimeter=0;entryX=0;entryY=0.5;entryDx=0;entryDy=0;" edge="1" parent="1" source="krENzpeuLF1vCz7CGpB7-5" target="krENzpeuLF1vCz7CGpB7-12">
          <mxGeometry relative="1" as="geometry" />
        </mxCell>
        <mxCell id="krENzpeuLF1vCz7CGpB7-23" style="rounded=0;orthogonalLoop=1;jettySize=auto;html=1;exitX=1;exitY=0.3333333333333333;exitDx=0;exitDy=0;exitPerimeter=0;entryX=0;entryY=0.5;entryDx=0;entryDy=0;" edge="1" parent="1" source="krENzpeuLF1vCz7CGpB7-5" target="krENzpeuLF1vCz7CGpB7-13">
          <mxGeometry relative="1" as="geometry" />
        </mxCell>
        <mxCell id="krENzpeuLF1vCz7CGpB7-24" style="rounded=0;orthogonalLoop=1;jettySize=auto;html=1;exitX=1;exitY=0.3333333333333333;exitDx=0;exitDy=0;exitPerimeter=0;entryX=0;entryY=0.5;entryDx=0;entryDy=0;" edge="1" parent="1" source="krENzpeuLF1vCz7CGpB7-5" target="krENzpeuLF1vCz7CGpB7-19">
          <mxGeometry relative="1" as="geometry" />
        </mxCell>
        <mxCell id="krENzpeuLF1vCz7CGpB7-25" style="rounded=0;orthogonalLoop=1;jettySize=auto;html=1;exitX=1;exitY=0.3333333333333333;exitDx=0;exitDy=0;exitPerimeter=0;entryX=0;entryY=0.5;entryDx=0;entryDy=0;" edge="1" parent="1" source="krENzpeuLF1vCz7CGpB7-5" target="krENzpeuLF1vCz7CGpB7-20">
          <mxGeometry relative="1" as="geometry" />
        </mxCell>
        <mxCell id="krENzpeuLF1vCz7CGpB7-26" style="rounded=0;orthogonalLoop=1;jettySize=auto;html=1;exitX=0;exitY=0.3333333333333333;exitDx=0;exitDy=0;exitPerimeter=0;entryX=1;entryY=0.5;entryDx=0;entryDy=0;" edge="1" parent="1" source="krENzpeuLF1vCz7CGpB7-5" target="krENzpeuLF1vCz7CGpB7-18">
          <mxGeometry relative="1" as="geometry" />
        </mxCell>
        <mxCell id="krENzpeuLF1vCz7CGpB7-27" style="rounded=0;orthogonalLoop=1;jettySize=auto;html=1;exitX=0;exitY=0.3333333333333333;exitDx=0;exitDy=0;exitPerimeter=0;entryX=1;entryY=0.5;entryDx=0;entryDy=0;" edge="1" parent="1" source="krENzpeuLF1vCz7CGpB7-5" target="krENzpeuLF1vCz7CGpB7-14">
          <mxGeometry relative="1" as="geometry" />
        </mxCell>
        <mxCell id="krENzpeuLF1vCz7CGpB7-28" style="rounded=0;orthogonalLoop=1;jettySize=auto;html=1;exitX=0;exitY=0.3333333333333333;exitDx=0;exitDy=0;exitPerimeter=0;entryX=1;entryY=0.5;entryDx=0;entryDy=0;" edge="1" parent="1" source="krENzpeuLF1vCz7CGpB7-5" target="krENzpeuLF1vCz7CGpB7-15">
          <mxGeometry relative="1" as="geometry" />
        </mxCell>
        <mxCell id="krENzpeuLF1vCz7CGpB7-29" style="rounded=0;orthogonalLoop=1;jettySize=auto;html=1;exitX=0;exitY=0.3333333333333333;exitDx=0;exitDy=0;exitPerimeter=0;entryX=1;entryY=0.5;entryDx=0;entryDy=0;" edge="1" parent="1" source="krENzpeuLF1vCz7CGpB7-5" target="krENzpeuLF1vCz7CGpB7-16">
          <mxGeometry relative="1" as="geometry" />
        </mxCell>
        <mxCell id="krENzpeuLF1vCz7CGpB7-30" style="rounded=0;orthogonalLoop=1;jettySize=auto;html=1;exitX=0;exitY=0.3333333333333333;exitDx=0;exitDy=0;exitPerimeter=0;entryX=1;entryY=0.5;entryDx=0;entryDy=0;" edge="1" parent="1" source="krENzpeuLF1vCz7CGpB7-5" target="krENzpeuLF1vCz7CGpB7-17">
          <mxGeometry relative="1" as="geometry" />
        </mxCell>
        <mxCell id="krENzpeuLF1vCz7CGpB7-54" style="rounded=0;orthogonalLoop=1;jettySize=auto;html=1;exitX=1;exitY=0.3333333333333333;exitDx=0;exitDy=0;exitPerimeter=0;entryX=0;entryY=0.5;entryDx=0;entryDy=0;" edge="1" parent="1" source="krENzpeuLF1vCz7CGpB7-5" target="krENzpeuLF1vCz7CGpB7-53">
          <mxGeometry relative="1" as="geometry" />
        </mxCell>
        <mxCell id="krENzpeuLF1vCz7CGpB7-65" style="rounded=0;orthogonalLoop=1;jettySize=auto;html=1;exitX=1;exitY=0.3333333333333333;exitDx=0;exitDy=0;exitPerimeter=0;entryX=0;entryY=0.5;entryDx=0;entryDy=0;" edge="1" parent="1" source="krENzpeuLF1vCz7CGpB7-5" target="krENzpeuLF1vCz7CGpB7-64">
          <mxGeometry relative="1" as="geometry" />
        </mxCell>
        <mxCell id="krENzpeuLF1vCz7CGpB7-110" style="rounded=0;orthogonalLoop=1;jettySize=auto;html=1;exitX=0;exitY=0.3333333333333333;exitDx=0;exitDy=0;exitPerimeter=0;entryX=1;entryY=0.5;entryDx=0;entryDy=0;" edge="1" parent="1" source="krENzpeuLF1vCz7CGpB7-5" target="krENzpeuLF1vCz7CGpB7-109">
          <mxGeometry relative="1" as="geometry" />
        </mxCell>
        <mxCell id="krENzpeuLF1vCz7CGpB7-5" value="Client" style="shape=umlActor;verticalLabelPosition=bottom;verticalAlign=top;html=1;outlineConnect=0;" vertex="1" parent="1">
          <mxGeometry x="370" y="400" width="30" height="60" as="geometry" />
        </mxCell>
        <mxCell id="krENzpeuLF1vCz7CGpB7-11" value="Search flights" style="ellipse;whiteSpace=wrap;html=1;" vertex="1" parent="1">
          <mxGeometry x="538" y="175" width="90" height="50" as="geometry" />
        </mxCell>
        <mxCell id="krENzpeuLF1vCz7CGpB7-12" value="Book tickets" style="ellipse;whiteSpace=wrap;html=1;" vertex="1" parent="1">
          <mxGeometry x="539" y="250" width="90" height="50" as="geometry" />
        </mxCell>
        <mxCell id="krENzpeuLF1vCz7CGpB7-13" value="Manage tickets" style="ellipse;whiteSpace=wrap;html=1;" vertex="1" parent="1">
          <mxGeometry x="539" y="396" width="90" height="50" as="geometry" />
        </mxCell>
        <mxCell id="krENzpeuLF1vCz7CGpB7-14" value="Login" style="ellipse;whiteSpace=wrap;html=1;" vertex="1" parent="1">
          <mxGeometry x="127" y="280" width="90" height="50" as="geometry" />
        </mxCell>
        <mxCell id="krENzpeuLF1vCz7CGpB7-15" value="Logout" style="ellipse;whiteSpace=wrap;html=1;" vertex="1" parent="1">
          <mxGeometry x="127" y="359" width="90" height="50" as="geometry" />
        </mxCell>
        <mxCell id="krENzpeuLF1vCz7CGpB7-16" value="View profile" style="ellipse;whiteSpace=wrap;html=1;" vertex="1" parent="1">
          <mxGeometry x="127" y="513" width="90" height="50" as="geometry" />
        </mxCell>
        <mxCell id="krENzpeuLF1vCz7CGpB7-17" value="Change password" style="ellipse;whiteSpace=wrap;html=1;" vertex="1" parent="1">
          <mxGeometry x="127" y="593" width="90" height="50" as="geometry" />
        </mxCell>
        <mxCell id="krENzpeuLF1vCz7CGpB7-18" value="View news" style="ellipse;whiteSpace=wrap;html=1;" vertex="1" parent="1">
          <mxGeometry x="127" y="199" width="90" height="50" as="geometry" />
        </mxCell>
        <mxCell id="krENzpeuLF1vCz7CGpB7-19" value="Online&lt;br&gt;Check-in" style="ellipse;whiteSpace=wrap;html=1;" vertex="1" parent="1">
          <mxGeometry x="538" y="542" width="90" height="50" as="geometry" />
        </mxCell>
        <mxCell id="krENzpeuLF1vCz7CGpB7-20" value="View Boarding Pass" style="ellipse;whiteSpace=wrap;html=1;" vertex="1" parent="1">
          <mxGeometry x="538" y="617" width="90" height="50" as="geometry" />
        </mxCell>
        <mxCell id="krENzpeuLF1vCz7CGpB7-53" value="Select seats" style="ellipse;whiteSpace=wrap;html=1;" vertex="1" parent="1">
          <mxGeometry x="539" y="469" width="90" height="50" as="geometry" />
        </mxCell>
        <mxCell id="krENzpeuLF1vCz7CGpB7-64" value="Input details" style="ellipse;whiteSpace=wrap;html=1;" vertex="1" parent="1">
          <mxGeometry x="539" y="324" width="90" height="50" as="geometry" />
        </mxCell>
        <mxCell id="krENzpeuLF1vCz7CGpB7-80" style="rounded=0;orthogonalLoop=1;jettySize=auto;html=1;exitX=1;exitY=0.3333333333333333;exitDx=0;exitDy=0;exitPerimeter=0;entryX=0;entryY=0.5;entryDx=0;entryDy=0;" edge="1" parent="1" source="krENzpeuLF1vCz7CGpB7-85" target="krENzpeuLF1vCz7CGpB7-88">
          <mxGeometry relative="1" as="geometry" />
        </mxCell>
        <mxCell id="krENzpeuLF1vCz7CGpB7-81" style="rounded=0;orthogonalLoop=1;jettySize=auto;html=1;exitX=1;exitY=0.3333333333333333;exitDx=0;exitDy=0;exitPerimeter=0;entryX=0;entryY=0.5;entryDx=0;entryDy=0;" edge="1" parent="1" source="krENzpeuLF1vCz7CGpB7-85" target="krENzpeuLF1vCz7CGpB7-91">
          <mxGeometry relative="1" as="geometry" />
        </mxCell>
        <mxCell id="krENzpeuLF1vCz7CGpB7-82" style="rounded=0;orthogonalLoop=1;jettySize=auto;html=1;exitX=1;exitY=0.3333333333333333;exitDx=0;exitDy=0;exitPerimeter=0;entryX=0;entryY=0.5;entryDx=0;entryDy=0;" edge="1" parent="1" source="krENzpeuLF1vCz7CGpB7-85" target="krENzpeuLF1vCz7CGpB7-102">
          <mxGeometry relative="1" as="geometry" />
        </mxCell>
        <mxCell id="krENzpeuLF1vCz7CGpB7-83" style="rounded=0;orthogonalLoop=1;jettySize=auto;html=1;exitX=1;exitY=0.3333333333333333;exitDx=0;exitDy=0;exitPerimeter=0;entryX=0;entryY=0.5;entryDx=0;entryDy=0;" edge="1" parent="1" source="krENzpeuLF1vCz7CGpB7-85" target="krENzpeuLF1vCz7CGpB7-92">
          <mxGeometry relative="1" as="geometry" />
        </mxCell>
        <mxCell id="krENzpeuLF1vCz7CGpB7-84" style="rounded=0;orthogonalLoop=1;jettySize=auto;html=1;exitX=1;exitY=0.3333333333333333;exitDx=0;exitDy=0;exitPerimeter=0;entryX=0.009;entryY=0.38;entryDx=0;entryDy=0;entryPerimeter=0;" edge="1" parent="1" source="krENzpeuLF1vCz7CGpB7-85" target="krENzpeuLF1vCz7CGpB7-108">
          <mxGeometry relative="1" as="geometry" />
        </mxCell>
        <mxCell id="krENzpeuLF1vCz7CGpB7-85" value="Client" style="shape=umlActor;verticalLabelPosition=bottom;verticalAlign=top;html=1;outlineConnect=0;" vertex="1" parent="1">
          <mxGeometry x="111" y="1371" width="30" height="60" as="geometry" />
        </mxCell>
        <mxCell id="krENzpeuLF1vCz7CGpB7-86" style="rounded=0;orthogonalLoop=1;jettySize=auto;html=1;exitX=1;exitY=0.5;exitDx=0;exitDy=0;entryX=0.056;entryY=0.223;entryDx=0;entryDy=0;entryPerimeter=0;" edge="1" parent="1" source="krENzpeuLF1vCz7CGpB7-99" target="krENzpeuLF1vCz7CGpB7-98">
          <mxGeometry relative="1" as="geometry" />
        </mxCell>
        <mxCell id="krENzpeuLF1vCz7CGpB7-87" style="rounded=0;orthogonalLoop=1;jettySize=auto;html=1;exitX=1;exitY=0.5;exitDx=0;exitDy=0;entryX=0;entryY=0.5;entryDx=0;entryDy=0;" edge="1" parent="1" source="krENzpeuLF1vCz7CGpB7-88" target="krENzpeuLF1vCz7CGpB7-99">
          <mxGeometry relative="1" as="geometry" />
        </mxCell>
        <mxCell id="krENzpeuLF1vCz7CGpB7-88" value="Search flights" style="ellipse;whiteSpace=wrap;html=1;" vertex="1" parent="1">
          <mxGeometry x="241" y="1197" width="90" height="50" as="geometry" />
        </mxCell>
        <mxCell id="krENzpeuLF1vCz7CGpB7-89" value="Book tickets" style="ellipse;whiteSpace=wrap;html=1;" vertex="1" parent="1">
          <mxGeometry x="614" y="1197" width="90" height="50" as="geometry" />
        </mxCell>
        <mxCell id="krENzpeuLF1vCz7CGpB7-90" style="edgeStyle=orthogonalEdgeStyle;rounded=0;orthogonalLoop=1;jettySize=auto;html=1;exitX=1;exitY=0.5;exitDx=0;exitDy=0;entryX=0;entryY=0.5;entryDx=0;entryDy=0;" edge="1" parent="1" source="krENzpeuLF1vCz7CGpB7-91" target="krENzpeuLF1vCz7CGpB7-95">
          <mxGeometry relative="1" as="geometry" />
        </mxCell>
        <mxCell id="krENzpeuLF1vCz7CGpB7-91" value="Manage tickets" style="ellipse;whiteSpace=wrap;html=1;" vertex="1" parent="1">
          <mxGeometry x="241" y="1321" width="90" height="50" as="geometry" />
        </mxCell>
        <mxCell id="krENzpeuLF1vCz7CGpB7-92" value="View news" style="ellipse;whiteSpace=wrap;html=1;" vertex="1" parent="1">
          <mxGeometry x="238" y="1566" width="90" height="50" as="geometry" />
        </mxCell>
        <mxCell id="krENzpeuLF1vCz7CGpB7-93" style="rounded=0;orthogonalLoop=1;jettySize=auto;html=1;exitX=1;exitY=0.5;exitDx=0;exitDy=0;entryX=0.056;entryY=0.69;entryDx=0;entryDy=0;entryPerimeter=0;" edge="1" parent="1" source="krENzpeuLF1vCz7CGpB7-95" target="krENzpeuLF1vCz7CGpB7-98">
          <mxGeometry relative="1" as="geometry" />
        </mxCell>
        <mxCell id="krENzpeuLF1vCz7CGpB7-94" style="rounded=0;orthogonalLoop=1;jettySize=auto;html=1;exitX=0.898;exitY=0.757;exitDx=0;exitDy=0;entryX=0.083;entryY=0.2;entryDx=0;entryDy=0;exitPerimeter=0;entryPerimeter=0;" edge="1" parent="1" source="krENzpeuLF1vCz7CGpB7-98" target="krENzpeuLF1vCz7CGpB7-96">
          <mxGeometry relative="1" as="geometry" />
        </mxCell>
        <mxCell id="krENzpeuLF1vCz7CGpB7-95" value="Online&lt;br&gt;Check-in" style="ellipse;whiteSpace=wrap;html=1;" vertex="1" parent="1">
          <mxGeometry x="383" y="1321" width="90" height="50" as="geometry" />
        </mxCell>
        <mxCell id="krENzpeuLF1vCz7CGpB7-96" value="View &lt;br&gt;Boarding Pass" style="ellipse;whiteSpace=wrap;html=1;" vertex="1" parent="1">
          <mxGeometry x="613" y="1321" width="90" height="50" as="geometry" />
        </mxCell>
        <mxCell id="krENzpeuLF1vCz7CGpB7-97" style="rounded=0;orthogonalLoop=1;jettySize=auto;html=1;exitX=1;exitY=0;exitDx=0;exitDy=0;entryX=0.059;entryY=0.747;entryDx=0;entryDy=0;entryPerimeter=0;" edge="1" parent="1" source="krENzpeuLF1vCz7CGpB7-98" target="krENzpeuLF1vCz7CGpB7-89">
          <mxGeometry relative="1" as="geometry" />
        </mxCell>
        <mxCell id="krENzpeuLF1vCz7CGpB7-98" value="Select seats" style="ellipse;whiteSpace=wrap;html=1;" vertex="1" parent="1">
          <mxGeometry x="503" y="1264" width="90" height="50" as="geometry" />
        </mxCell>
        <mxCell id="krENzpeuLF1vCz7CGpB7-99" value="Input details" style="ellipse;whiteSpace=wrap;html=1;" vertex="1" parent="1">
          <mxGeometry x="383" y="1197" width="90" height="50" as="geometry" />
        </mxCell>
        <mxCell id="krENzpeuLF1vCz7CGpB7-100" style="rounded=0;orthogonalLoop=1;jettySize=auto;html=1;exitX=1;exitY=0.5;exitDx=0;exitDy=0;entryX=0;entryY=0.5;entryDx=0;entryDy=0;" edge="1" parent="1" source="krENzpeuLF1vCz7CGpB7-102" target="krENzpeuLF1vCz7CGpB7-105">
          <mxGeometry relative="1" as="geometry" />
        </mxCell>
        <mxCell id="krENzpeuLF1vCz7CGpB7-101" style="rounded=0;orthogonalLoop=1;jettySize=auto;html=1;exitX=1;exitY=1;exitDx=0;exitDy=0;entryX=0;entryY=0.5;entryDx=0;entryDy=0;" edge="1" parent="1" source="krENzpeuLF1vCz7CGpB7-102" target="krENzpeuLF1vCz7CGpB7-107">
          <mxGeometry relative="1" as="geometry" />
        </mxCell>
        <mxCell id="krENzpeuLF1vCz7CGpB7-102" value="Login" style="ellipse;whiteSpace=wrap;html=1;direction=east;" vertex="1" parent="1">
          <mxGeometry x="241" y="1406" width="90" height="50" as="geometry" />
        </mxCell>
        <mxCell id="krENzpeuLF1vCz7CGpB7-103" value="Logout" style="ellipse;whiteSpace=wrap;html=1;direction=east;" vertex="1" parent="1">
          <mxGeometry x="508" y="1406" width="90" height="50" as="geometry" />
        </mxCell>
        <mxCell id="krENzpeuLF1vCz7CGpB7-104" style="rounded=0;orthogonalLoop=1;jettySize=auto;html=1;exitX=1;exitY=0.5;exitDx=0;exitDy=0;entryX=0;entryY=0.5;entryDx=0;entryDy=0;" edge="1" parent="1" source="krENzpeuLF1vCz7CGpB7-105" target="krENzpeuLF1vCz7CGpB7-103">
          <mxGeometry relative="1" as="geometry" />
        </mxCell>
        <mxCell id="krENzpeuLF1vCz7CGpB7-105" value="View profile" style="ellipse;whiteSpace=wrap;html=1;direction=east;" vertex="1" parent="1">
          <mxGeometry x="383" y="1406" width="90" height="50" as="geometry" />
        </mxCell>
        <mxCell id="krENzpeuLF1vCz7CGpB7-106" style="rounded=0;orthogonalLoop=1;jettySize=auto;html=1;exitX=1;exitY=0.5;exitDx=0;exitDy=0;entryX=0.407;entryY=1.04;entryDx=0;entryDy=0;entryPerimeter=0;" edge="1" parent="1" source="krENzpeuLF1vCz7CGpB7-107" target="krENzpeuLF1vCz7CGpB7-103">
          <mxGeometry relative="1" as="geometry" />
        </mxCell>
        <mxCell id="krENzpeuLF1vCz7CGpB7-107" value="Change password" style="ellipse;whiteSpace=wrap;html=1;direction=east;" vertex="1" parent="1">
          <mxGeometry x="378" y="1496" width="90" height="50" as="geometry" />
        </mxCell>
        <mxCell id="krENzpeuLF1vCz7CGpB7-108" value="Sign-up" style="ellipse;whiteSpace=wrap;html=1;" vertex="1" parent="1">
          <mxGeometry x="238" y="1486" width="90" height="50" as="geometry" />
        </mxCell>
        <mxCell id="krENzpeuLF1vCz7CGpB7-109" value="Sign-up" style="ellipse;whiteSpace=wrap;html=1;" vertex="1" parent="1">
          <mxGeometry x="127" y="439" width="90" height="50" as="geometry" />
        </mxCell>
      </root>
    </mxGraphModel>
  </diagram>
</mxfile>
